<?xml version="1.0" encoding="utf-8"?>
<!-- Svg Vector Icons : http://www.onlinewebfonts.com/icon -->
<!DOCTYPE svg PUBLIC "-//W3C//DTD SVG 1.1//EN" "http://www.w3.org/Graphics/SVG/1.1/DTD/svg11.dtd">
<svg version="1.1" xmlns="http://www.w3.org/2000/svg" xmlns:xlink="http://www.w3.org/1999/xlink" x="0px" y="0px" viewBox="0 0 256 256" enable-background="new 0 0 256 256" xml:space="preserve">
<metadata> Svg Vector Icons : http://www.onlinewebfonts.com/icon </metadata>
<style>
    svg {
        fill: black;
    }
    @media (prefers-color-scheme: dark) {
        svg {
            fill: white;
        }
    }
    
</style>
<g><g><g><path d="M145.6,8.7c-1.2,0.4-2.7,1-3.5,1.4c-0.7,0.4-29.1,28.4-63,62.3c-48.1,48.1-61.7,61.9-62,63.2c-0.4,2.3,0.4,3.9,3.7,7.5c1.7,1.8,3,3.3,3,3.5s-3,3.3-6.7,6.9c-7.2,7.2-8.1,8.7-6.5,11.6c0.5,0.9,18.6,19.3,40.3,40.9c31.5,31.4,40,39.6,42.2,40.7c2.1,1,3.6,1.2,7,1.3c3.9,0,4.7-0.2,8.6-2.1c4.2-2,4.9-2.7,68.3-66.1c35.3-35.2,64.8-65,65.7-66.2c2.4-3.5,3.3-6.4,3.3-11c0.1-3.7-0.2-4.6-1.9-8c-1.8-3.6-4.3-6.3-41.7-43.5C157.7,6.2,160.2,8.4,152,8.1C149.5,8,146.8,8.3,145.6,8.7z M153.7,19.7c1.7,0.6,79,77.6,80.2,79.8c0.9,1.7,1,4.3,0.2,5.9c-0.6,1.3-117.1,118.1-117.7,118.1c-0.2,0-0.5-0.5-0.7-1.2c-0.2-0.6-19.4-20.2-42.6-43.4l-42.2-42.3l58.4-58.4c39.6-39.6,58.9-58.5,59.8-58.6C151.5,19.1,152.2,19.2,153.7,19.7z M106.3,230.7c0,1.1-0.3,2.5-0.5,3.1c-0.8,1.4-3.4,2.6-5.7,2.6c-2,0-3-1-38.9-36.9l-36.9-36.9l4-4l4-4l37,37C105.2,227.6,106.3,228.7,106.3,230.7z"/><path d="M104.8,90c-24.8,24.8-45,45.3-45,45.6c0,0.7,15.1,15.8,15.8,15.8c0.7,0,90.7-90,90.7-90.7c0-0.7-15.1-15.8-15.8-15.8C150.1,44.9,129.6,65.2,104.8,90z"/><path d="M157,91.8c-16.6,16.6-18.6,18.8-18.6,20.3c0,1.9,1.6,3.4,3.4,3.4c1.3,0,38.2-36.6,38.7-38.4c0.5-1.9-1.1-3.9-3.2-3.9C175.7,73.2,173.7,75.1,157,91.8z"/><path d="M171.4,105.7c-10.2,10.3-18.7,19.2-18.9,19.8c-0.5,1.8,1.1,3.9,2.9,3.9c1.2,0,4.7-3.3,20.3-18.9c15.4-15.4,18.8-19.1,18.8-20.3c0-1.6-1.7-3.1-3.4-3.1C190.4,87.1,183.4,93.7,171.4,105.7z"/><path d="M185.3,120.2c-16.5,16.5-18.6,18.8-18.6,20.2c0,1.8,0.6,2.5,2.6,3.2c1.1,0.3,3.3-1.7,20.2-18.5c10.4-10.4,19.1-19.4,19.3-19.9c0.5-1.7-1.2-3.6-3.2-3.6C204,101.6,202.1,103.4,185.3,120.2z"/><path d="M107.2,141.5c-10,10-18.5,18.7-18.9,19.5c-1.4,2.7,0.9,5.5,3.9,4.5c0.5-0.2,9.2-8.6,19.3-18.7c16-16.1,18.3-18.5,18.3-20c0-1.9-1.4-3.4-3.2-3.4C125.6,123.5,120.8,128,107.2,141.5z"/><path d="M139.7,138c-0.6,0.2-9.3,8.7-19.4,18.8c-19.3,19.3-19.7,19.8-17.5,22c2.2,2.2,2.7,1.8,22.6-18c13.2-13.2,18.8-19.2,18.8-20c0-0.6-0.6-1.7-1.4-2.2C141.3,137.3,141.2,137.3,139.7,138z"/><path d="M134.8,170.8c-13.5,13.5-18.9,19.2-18.9,20.1c0,1.5,1.8,3.3,3.3,3.3c0.9,0,6.6-5.4,20.1-18.8c19.8-19.8,20.3-20.4,18-22.6C155.1,150.5,154.6,151,134.8,170.8z"/></g></g></g>
</svg>